<svg width="27" height="28" viewBox="0 0 27 28" fill="none" xmlns="http://www.w3.org/2000/svg">
<path d="M3.59965 1.57006L13.4996 11.4701L23.3996 1.60006C23.7938 1.19896 24.3377 0.981457 24.8996 1.00006C26.0279 1.07296 26.9267 1.97176 26.9996 3.10006C27.005 3.64186 26.7881 4.16236 26.3996 4.54006L16.4696 14.5001L26.3996 24.4601C26.7881 24.8378 27.005 25.3583 26.9996 25.9001C26.9267 27.0284 26.0279 27.9272 24.8996 28.0001C24.3377 28.0187 23.7938 27.8012 23.3996 27.4001L13.4996 17.5301L3.62965 27.4001C3.23545 27.8012 2.69155 28.0187 2.12965 28.0001C0.979148 27.9401 0.0596481 27.0206 -0.000351884 25.8701C-0.00575188 25.3283 0.211148 24.8078 0.599648 24.4301L10.5296 14.5001L0.569648 4.54006C0.191948 4.15726 -0.0138519 3.63766 -0.000351884 3.10006C0.0725481 1.97176 0.971348 1.07296 2.09965 1.00006C2.65705 0.973657 3.20035 1.18006 3.59965 1.57006Z" fill="white"/>
</svg>
