<svg width="46" height="46" viewBox="0 0 46 46" fill="none" xmlns="http://www.w3.org/2000/svg">
<path d="M23 46C18.451 46 14.0042 44.6511 10.2219 42.1238C6.43956 39.5965 3.4916 36.0044 1.75078 31.8017C0.00996551 27.599 -0.445511 22.9745 0.441949 18.5129C1.32941 14.0514 3.51995 9.95315 6.73655 6.73655C9.95316 3.51994 14.0514 1.3294 18.5129 0.44194C22.9745 -0.445518 27.599 0.00995636 31.8017 1.75077C36.0044 3.49159 39.5965 6.43956 42.1238 10.2219C44.6511 14.0042 46 18.451 46 23C45.9951 29.0985 43.5704 34.9458 39.2581 39.2581C34.9458 43.5704 29.0985 45.9951 23 46ZM25.76 19.044V13.8C25.76 13.556 25.6631 13.322 25.4905 13.1495C25.318 12.9769 25.084 12.88 24.84 12.88H21.16C20.916 12.88 20.682 12.9769 20.5095 13.1495C20.3369 13.322 20.24 13.556 20.24 13.8V19.044C18.9189 19.6707 17.8504 20.7282 17.2102 22.0428C16.5699 23.3574 16.3961 24.8507 16.7173 26.2771C17.0385 27.7036 17.8355 28.9783 18.9773 29.8917C20.1192 30.805 21.5378 31.3026 23 31.3026C24.4622 31.3026 25.8809 30.805 27.0227 29.8917C28.1645 28.9783 28.9616 27.7036 29.2827 26.2771C29.6039 24.8507 29.4301 23.3574 28.7899 22.0428C28.1496 20.7282 27.0811 19.6707 25.76 19.044Z" fill="white"/>
</svg>
