<svg width="46" height="46" viewBox="0 0 46 46" fill="none" xmlns="http://www.w3.org/2000/svg">
<path d="M23 46C18.451 46 14.0042 44.6511 10.2219 42.1238C6.43956 39.5965 3.4916 36.0044 1.75078 31.8017C0.00996551 27.599 -0.445511 22.9745 0.441949 18.5129C1.32941 14.0514 3.51995 9.95315 6.73655 6.73655C9.95316 3.51994 14.0514 1.3294 18.5129 0.44194C22.9745 -0.445518 27.599 0.00995636 31.8017 1.75077C36.0044 3.49159 39.5965 6.43956 42.1238 10.2219C44.6511 14.0042 46 18.451 46 23C45.9903 29.097 43.5639 34.9415 39.2527 39.2527C34.9415 43.5639 29.097 45.9903 23 46ZM32.6784 22.2272L17.9584 13.0272C17.8135 12.9396 17.6492 12.889 17.48 12.88C17.3259 12.8792 17.174 12.9172 17.0384 12.9904C16.8945 13.0713 16.7745 13.1888 16.6905 13.331C16.6065 13.4731 16.5615 13.6349 16.56 13.8V32.2C16.5615 32.3651 16.6065 32.5269 16.6905 32.6691C16.7745 32.8112 16.8945 32.9287 17.0384 33.0096C17.1798 33.0957 17.3421 33.1413 17.5076 33.1413C17.6731 33.1413 17.8355 33.0957 17.9768 33.0096L32.6968 23.8096C32.8302 23.7295 32.9405 23.6162 33.0171 23.4808C33.0938 23.3453 33.134 23.1924 33.134 23.0368C33.134 22.8812 33.0938 22.7283 33.0171 22.5929C32.9405 22.4574 32.8302 22.3441 32.6968 22.264L32.6784 22.2272Z" fill="white"/>
</svg>
