<svg width="46" height="46" viewBox="0 0 46 46" fill="none" xmlns="http://www.w3.org/2000/svg">
<path d="M46 23.0003C46 28.8565 43.7932 34.4379 39.7857 38.7162C39.7846 38.7167 39.7846 38.7179 39.7834 38.7185C35.4483 43.3462 29.3305 46 22.9997 46C16.669 46 10.5516 43.3462 6.21715 38.7185C2.20799 34.439 0 28.8571 0 23.0003C0 17.1429 2.20856 11.5604 6.21715 7.28213C10.5511 2.65498 16.669 0 23.0003 0C23.0009 0 23.0014 0 23.002 0C23.002 0 23.002 0 23.0026 0C29.3328 0.000576019 35.4483 2.65441 39.7834 7.28155C39.7846 7.28213 39.7846 7.28327 39.7857 7.28385C43.7932 11.5621 46 17.1435 46 23.0003ZM39.0151 9.43675C38.9744 9.47634 38.9308 9.51364 38.8889 9.55323C38.789 9.64848 38.6857 9.74029 38.5842 9.83382C38.369 10.0324 38.1504 10.228 37.9272 10.418C37.8095 10.5189 37.6908 10.6176 37.5708 10.7158C37.3499 10.8965 37.1267 11.0721 36.8995 11.2448C36.7813 11.3343 36.6642 11.425 36.5443 11.5128C36.2809 11.705 36.0118 11.8898 35.741 12.0711C35.6561 12.1279 35.5729 12.1876 35.4879 12.2432C35.1293 12.4756 34.7638 12.6982 34.3937 12.91C34.3082 12.9587 34.2204 13.0029 34.1349 13.0506C33.8469 13.2101 33.5559 13.3656 33.2616 13.5136C33.1302 13.5796 32.9959 13.6421 32.8628 13.7053C32.6063 13.8275 32.3487 13.9457 32.087 14.0582C31.9441 14.119 31.8013 14.1798 31.6572 14.2383C31.558 14.2785 31.461 14.3233 31.3612 14.3628C31.3996 14.6228 31.4277 14.8902 31.4633 15.153C31.5006 15.4353 31.5402 15.7164 31.5723 16.0022C31.624 16.4417 31.6653 16.887 31.7054 17.3328C31.7301 17.6008 31.7582 17.8665 31.7783 18.1367C31.8179 18.6537 31.8454 19.1776 31.8713 19.7026C31.881 19.9069 31.8959 20.1089 31.904 20.3143C31.9315 21.0316 31.9464 21.7551 31.9476 22.4839H43.9854C43.8683 17.676 42.1211 13.0976 39.0151 9.43675ZM28.9363 12.2145C28.8927 12.0045 28.849 11.7957 28.802 11.5897C28.7595 11.398 28.7142 11.2098 28.6689 11.0227C28.6207 10.8225 28.5713 10.6245 28.5197 10.4294C28.4726 10.247 28.4233 10.0668 28.3739 9.8889C28.3206 9.69898 28.2666 9.51134 28.2116 9.32716C28.1599 9.15387 28.1071 8.98345 28.0543 8.8159C27.9964 8.6363 27.9384 8.459 27.8793 8.28513C27.8237 8.12332 27.7686 7.96323 27.7118 7.80658C27.6504 7.63731 27.5878 7.47263 27.5247 7.30967C27.4662 7.15876 27.4082 7.01014 27.3474 6.86497C27.2826 6.70775 27.216 6.55512 27.15 6.40421C27.0892 6.26592 27.0278 6.12821 26.9653 5.99509C26.897 5.84934 26.8275 5.70991 26.7575 5.57162C26.6944 5.44596 26.6302 5.3203 26.5659 5.20037C26.4942 5.06783 26.4213 4.94216 26.3478 4.8165C26.283 4.70461 26.2176 4.59099 26.1516 4.48541C26.0764 4.36491 26.0001 4.2536 25.9244 4.14113C25.8584 4.04359 25.7924 3.94374 25.7247 3.85251C25.6461 3.74578 25.5669 3.64938 25.4877 3.55127C25.4212 3.46864 25.354 3.38256 25.2863 3.30625C25.2043 3.21387 25.1222 3.13296 25.0396 3.05091C24.9724 2.9832 24.9065 2.91148 24.8387 2.85008C24.7538 2.77319 24.6672 2.70892 24.5811 2.64236C24.5163 2.59072 24.4503 2.53449 24.3843 2.48916C24.2931 2.42719 24.2024 2.37956 24.11 2.32964C24.0486 2.29521 23.9866 2.25447 23.9253 2.22578C23.8231 2.17873 23.7204 2.14832 23.6177 2.11733C23.5666 2.10126 23.515 2.07659 23.4633 2.06454C23.3084 2.02839 23.1541 2.00888 23.0003 2.00888C22.8459 2.00888 22.691 2.02839 22.5361 2.06454C22.485 2.07659 22.4339 2.10069 22.3823 2.11676C22.279 2.14889 22.1769 2.17873 22.0742 2.22578C22.0128 2.2539 21.9519 2.29464 21.8917 2.32792C21.7987 2.37899 21.7069 2.42661 21.6151 2.48916C21.5509 2.53277 21.4872 2.589 21.4229 2.63834C21.3351 2.70663 21.2473 2.77204 21.1607 2.85123C21.0953 2.9109 21.0298 2.98033 20.965 3.04574C20.8812 3.13009 20.7963 3.21329 20.7131 3.3074C20.6471 3.38199 20.5823 3.46519 20.5174 3.54552C20.436 3.64594 20.3545 3.74521 20.2747 3.85423C20.2093 3.9426 20.1445 4.03957 20.0808 4.13367C20.0022 4.24901 19.9241 4.36377 19.8467 4.48771C19.783 4.59042 19.7199 4.69944 19.6567 4.80789C19.581 4.93757 19.5058 5.06725 19.4318 5.20439C19.3698 5.31972 19.3084 5.44137 19.247 5.56244C19.1753 5.70531 19.103 5.84934 19.0324 6.00025C18.9728 6.12821 18.9131 6.26133 18.8534 6.39503C18.7851 6.55053 18.7169 6.7089 18.6497 6.87186C18.5912 7.01187 18.5355 7.15646 18.4781 7.30164C18.4139 7.46919 18.349 7.63903 18.2865 7.81289C18.2314 7.96553 18.1769 8.12103 18.123 8.27882C18.0627 8.45785 18.0025 8.63917 17.9434 8.82393C17.8917 8.98689 17.8401 9.15215 17.7896 9.3197C17.7334 9.50905 17.6783 9.70127 17.6238 9.89637C17.5756 10.0708 17.5274 10.2464 17.4803 10.4254C17.4287 10.6245 17.3782 10.8265 17.3288 11.0302C17.2846 11.2138 17.2405 11.3992 17.1974 11.5868C17.1504 11.7951 17.1056 12.0068 17.0614 12.2203C17.0213 12.4142 16.9805 12.6082 16.9427 12.8061C16.9289 12.8778 16.9163 12.9519 16.9031 13.0242C16.9077 13.0259 16.9122 13.0276 16.9163 13.0288C17.3466 13.1596 17.7821 13.2703 18.2188 13.3725C18.3158 13.3948 18.4116 13.4189 18.5091 13.4396C18.9206 13.5297 19.3343 13.6049 19.7497 13.6697C19.8662 13.6875 19.9827 13.7053 20.0991 13.7208C20.5123 13.7787 20.926 13.8252 21.342 13.8579C21.4499 13.8665 21.5572 13.8705 21.665 13.878C22.0661 13.9032 22.4672 13.9187 22.8689 13.9216C22.9561 13.9222 23.0433 13.9222 23.1305 13.9216C23.5328 13.9193 23.9344 13.9032 24.3367 13.8774C24.4434 13.8705 24.5501 13.8659 24.6563 13.8579C25.0729 13.8246 25.4883 13.7776 25.902 13.7208C26.0173 13.7047 26.1327 13.6881 26.248 13.6703C26.6652 13.6054 27.08 13.5291 27.4932 13.4396C27.5878 13.4189 27.6819 13.3954 27.776 13.373C28.2156 13.2709 28.6511 13.1596 29.0832 13.0288C29.0872 13.027 29.0918 13.0259 29.0952 13.0242C29.082 12.9524 29.0694 12.8784 29.0556 12.8067C29.0177 12.6053 28.9776 12.4096 28.9363 12.2145ZM17.2187 33.6449C17.2651 33.8486 17.311 34.0517 17.3592 34.2503C17.4028 34.4264 17.4476 34.5974 17.4924 34.769C17.5423 34.9612 17.5928 35.1528 17.645 35.3399C17.692 35.5075 17.7402 35.671 17.789 35.8339C17.8435 36.0158 17.8975 36.196 17.9543 36.3722C18.0042 36.5305 18.0558 36.686 18.108 36.8392C18.1654 37.0097 18.2234 37.1778 18.2831 37.3425C18.337 37.4917 18.3915 37.638 18.4466 37.7826C18.5074 37.9415 18.5694 38.0976 18.6314 38.2502C18.6887 38.3885 18.7455 38.5251 18.8035 38.6588C18.8672 38.8062 18.9332 38.9497 18.998 39.0908C19.0577 39.2182 19.1168 39.3439 19.1765 39.4655C19.2436 39.6015 19.3119 39.7329 19.3807 39.862C19.4416 39.9774 19.503 40.0916 19.5649 40.2017C19.6344 40.3257 19.7061 40.4433 19.7772 40.5598C19.8392 40.6625 19.9023 40.7652 19.966 40.8627C20.0389 40.9735 20.1129 41.0774 20.1869 41.1812C20.2506 41.2707 20.3143 41.362 20.3786 41.4457C20.4549 41.5444 20.5312 41.6334 20.6075 41.7235C20.6718 41.7998 20.7361 41.8778 20.8009 41.9478C20.8801 42.0327 20.9598 42.1073 21.0396 42.1836C21.1033 42.245 21.1676 42.3105 21.2313 42.3655C21.3145 42.4367 21.3971 42.4964 21.4809 42.5578C21.5428 42.6042 21.6059 42.6559 21.6685 42.6966C21.7557 42.7534 21.8446 42.7965 21.9319 42.8424C21.9915 42.8739 22.0506 42.9112 22.1103 42.937C22.209 42.9795 22.3071 43.007 22.4053 43.0363C22.4557 43.0507 22.5051 43.073 22.5556 43.0845C22.7036 43.1172 22.8528 43.135 23.0009 43.135C23.1489 43.135 23.2987 43.1172 23.4461 43.0845C23.496 43.073 23.5454 43.0507 23.5953 43.0363C23.694 43.0076 23.7927 42.9801 23.8914 42.937C23.9499 42.9112 24.0085 42.8745 24.0676 42.8441C24.1559 42.7976 24.2449 42.754 24.3332 42.696C24.3952 42.6559 24.4566 42.6054 24.5186 42.5595C24.6023 42.4975 24.6873 42.4373 24.7699 42.365C24.8336 42.3105 24.8967 42.2462 24.9592 42.1854C25.0402 42.1085 25.1205 42.0327 25.2002 41.9467C25.2645 41.8778 25.3282 41.8003 25.3913 41.7257C25.4694 41.6345 25.5468 41.5439 25.6226 41.444C25.6863 41.3614 25.7494 41.2713 25.8125 41.1835C25.8871 41.0785 25.9623 40.9735 26.0357 40.861C26.0982 40.7652 26.1608 40.6631 26.2222 40.5621C26.2945 40.4439 26.3668 40.3251 26.4374 40.1994C26.4982 40.0916 26.5584 39.9779 26.6187 39.8643C26.6881 39.7335 26.757 39.601 26.8247 39.4632C26.8843 39.3427 26.9429 39.2182 27.0014 39.0926C27.068 38.9503 27.1328 38.8051 27.1982 38.6553C27.2556 38.5239 27.3124 38.3885 27.3686 38.2514C27.4312 38.0964 27.4943 37.9392 27.5557 37.7786C27.6096 37.6363 27.6636 37.4917 27.7169 37.3442C27.7766 37.1778 27.8357 37.0079 27.8942 36.8358C27.9459 36.6826 27.9964 36.5288 28.0469 36.371C28.1031 36.1943 28.1576 36.0135 28.2121 35.8317C28.2609 35.6693 28.3085 35.5063 28.355 35.3393C28.4078 35.1511 28.4594 34.9583 28.5099 34.7644C28.5535 34.5945 28.5983 34.4241 28.6413 34.2503C28.6907 34.0506 28.7366 33.8463 28.7836 33.6414C28.8238 33.4636 28.8645 33.2868 28.903 33.1049C28.915 33.0464 28.9259 32.9862 28.9386 32.9276C28.9294 32.9253 28.9208 32.923 28.9116 32.9202C28.495 32.798 28.0738 32.693 27.6509 32.5971C27.5626 32.5776 27.4736 32.5558 27.3853 32.5369C26.9819 32.4514 26.5762 32.3797 26.1694 32.3171C26.0564 32.3005 25.9427 32.2838 25.8291 32.2683C25.4263 32.2138 25.0229 32.1696 24.6184 32.1381C24.5117 32.1301 24.4055 32.1255 24.2988 32.1192C23.9098 32.0951 23.5201 32.0801 23.13 32.0773C23.045 32.0767 22.959 32.0767 22.8735 32.0773C22.4833 32.0801 22.0937 32.0951 21.7035 32.1192C21.5973 32.1255 21.4918 32.1306 21.3862 32.1381C20.9805 32.1696 20.5771 32.2138 20.1743 32.2683C20.0607 32.2833 19.9471 32.2999 19.834 32.3171C19.4272 32.3785 19.0215 32.4502 18.6187 32.5369C18.5298 32.5552 18.4409 32.577 18.3519 32.5971C17.9279 32.6935 17.5061 32.7985 17.0884 32.9208C17.0804 32.9236 17.0729 32.9253 17.0649 32.9276C17.0769 32.9862 17.0873 33.0464 17.0999 33.1049C17.1372 33.2891 17.1773 33.467 17.2187 33.6449ZM28.0583 15.3664C27.951 15.3911 27.8443 15.4169 27.737 15.4399C27.3405 15.5231 26.9406 15.5925 26.5406 15.6539C26.3639 15.6814 26.1878 15.7084 26.0099 15.7319C25.626 15.7824 25.2416 15.8237 24.856 15.8553C24.6586 15.8708 24.4606 15.8811 24.2632 15.892C23.9763 15.9069 23.6894 15.9173 23.4025 15.9224C23.2682 15.9247 23.134 15.9362 22.9991 15.9362C22.8649 15.9362 22.73 15.9242 22.5958 15.9224C22.3089 15.9173 22.0231 15.9075 21.7362 15.892C21.5388 15.8806 21.3414 15.8708 21.1446 15.8553C20.7579 15.8237 20.3728 15.7824 19.989 15.7319C19.8117 15.7084 19.6355 15.682 19.4588 15.6539C19.0565 15.5919 18.6543 15.5225 18.2544 15.4387C18.1505 15.4163 18.0478 15.3905 17.9434 15.3676C17.5446 15.2781 17.1475 15.1771 16.7533 15.0658C16.6971 15.0503 16.6403 15.0394 16.584 15.0233C16.5582 15.2046 16.5289 15.3836 16.5054 15.5667C16.4721 15.8232 16.4406 16.0808 16.4113 16.3407C16.3631 16.7625 16.3218 17.1888 16.2834 17.6174C16.261 17.8688 16.2375 18.1184 16.2185 18.3709C16.1824 18.8528 16.156 19.34 16.133 19.8295C16.1233 20.032 16.1089 20.2317 16.102 20.4354C16.0768 21.1131 16.0636 21.7964 16.0624 22.485H29.9376C29.9364 21.7964 29.9232 21.1125 29.898 20.4354C29.8905 20.2328 29.8767 20.0343 29.867 19.8329C29.8434 19.3429 29.8165 18.8551 29.7809 18.3726C29.762 18.119 29.7384 17.8682 29.7161 17.6169C29.6782 17.1894 29.6363 16.7642 29.5887 16.343C29.5588 16.0825 29.5273 15.8237 29.4934 15.5661C29.4699 15.3836 29.4412 15.2046 29.4154 15.0239C29.358 15.0399 29.3001 15.0514 29.2433 15.0675C28.8508 15.1771 28.4566 15.2775 28.0583 15.3664ZM18.2199 30.5676C18.232 30.5647 18.244 30.5613 18.2561 30.559C18.7484 30.4546 19.2453 30.3708 19.744 30.2996C19.7876 30.2927 19.8312 30.2864 19.8748 30.2807C20.3757 30.2118 20.8795 30.1596 21.385 30.124C21.404 30.1229 21.4229 30.1217 21.4418 30.1206C21.96 30.085 22.4793 30.0632 23.0003 30.0632C23.5213 30.0632 24.0406 30.085 24.5582 30.1206C24.5782 30.1217 24.5983 30.1229 24.6184 30.1246C25.1228 30.1602 25.6243 30.2118 26.1235 30.2801C26.1694 30.2864 26.2153 30.2933 26.2612 30.3002C26.7575 30.3714 27.2522 30.4551 27.7428 30.5584C27.7571 30.5613 27.7714 30.5653 27.7852 30.5687C28.2471 30.6669 28.7056 30.7822 29.16 30.909C29.2037 30.9211 29.2484 30.9291 29.292 30.9423C29.3247 30.7392 29.3603 30.54 29.3896 30.3346C29.4177 30.1458 29.4458 29.9571 29.4705 29.7666C29.5451 29.2111 29.6111 28.6499 29.6679 28.0807C29.6759 28.0038 29.6857 27.9281 29.6925 27.8512C29.7539 27.2045 29.801 26.5481 29.8394 25.8848C29.8503 25.7052 29.8572 25.5221 29.8658 25.3408C29.879 25.0608 29.8859 24.7768 29.8957 24.4933H16.1049C16.1141 24.7774 16.1204 25.0631 16.1342 25.3448C16.1433 25.5256 16.1497 25.7086 16.1606 25.8882C16.1984 26.5493 16.2461 27.2051 16.3069 27.8501C16.3155 27.935 16.3264 28.0182 16.335 28.1031C16.3912 28.6649 16.4561 29.2186 16.5289 29.7666C16.5548 29.9571 16.5829 30.1464 16.6098 30.3352C16.6403 30.5395 16.6758 30.7386 16.7085 30.9417C16.7522 30.9291 16.7981 30.9205 16.8417 30.9079C17.2984 30.7816 17.7569 30.6657 18.2199 30.5676ZM31.9154 24.4927C31.9045 24.8215 31.8845 25.1446 31.869 25.4699C31.8586 25.6817 31.8512 25.8951 31.8386 26.1057C31.7978 26.7908 31.7479 27.4708 31.6831 28.1404C31.6773 28.2035 31.6687 28.2655 31.6618 28.328C31.6016 28.9363 31.5299 29.5359 31.4495 30.1298C31.4208 30.3421 31.3875 30.5504 31.356 30.7615C31.3158 31.037 31.2785 31.317 31.2338 31.5884C31.3336 31.6268 31.4312 31.6716 31.531 31.7112C31.6767 31.7703 31.8213 31.83 31.9659 31.8914C32.2316 32.0038 32.495 32.122 32.7561 32.2448C32.8915 32.3085 33.0275 32.3716 33.1617 32.4376C33.459 32.5845 33.7505 32.7389 34.0402 32.8984C34.1309 32.9483 34.2233 32.9942 34.3139 33.0453C34.6904 33.2587 35.0622 33.4831 35.4265 33.7178C35.5086 33.7706 35.5878 33.8274 35.6698 33.8813C35.9498 34.0672 36.2281 34.2571 36.5001 34.4551C36.6212 34.5423 36.7388 34.6336 36.8576 34.7236C37.0888 34.8986 37.3172 35.0765 37.5416 35.2601C37.6632 35.3594 37.7843 35.4604 37.9042 35.562C38.1286 35.7525 38.3478 35.9487 38.5647 36.1478C38.6708 36.2448 38.7775 36.3406 38.8814 36.4399C38.925 36.4812 38.9721 36.5208 39.0151 36.5632C41.9099 33.1514 43.6245 28.942 43.9389 24.4927H31.9154ZM37.6397 38.0379C37.5949 37.9937 37.5525 37.9478 37.5066 37.9042C37.4136 37.8153 37.3172 37.7281 37.2231 37.6409C37.0234 37.4578 36.822 37.2782 36.6166 37.1026C36.5145 37.016 36.4123 36.9288 36.3085 36.8438C36.0835 36.6596 35.8546 36.4806 35.6228 36.3056C35.5407 36.2442 35.4604 36.1794 35.3772 36.1191C35.0622 35.889 34.7414 35.6664 34.4144 35.4541C34.3484 35.4116 34.2812 35.3726 34.2147 35.3307C33.9496 35.1632 33.681 35.0002 33.4102 34.8441C33.2972 34.7799 33.183 34.7179 33.0694 34.6559C32.833 34.5257 32.5931 34.4006 32.3515 34.2801C32.2345 34.221 32.1169 34.1625 31.9981 34.1057C31.7267 33.976 31.4518 33.8543 31.1741 33.7361C31.0903 33.7 31.0071 33.6615 30.9228 33.6277C30.8992 33.6179 30.8757 33.6105 30.8522 33.6013C30.8401 33.661 30.8258 33.7172 30.8132 33.7763C30.7937 33.8675 30.773 33.9565 30.7529 34.0466C30.6686 34.4235 30.5802 34.7936 30.4884 35.154C30.4764 35.2005 30.4654 35.2487 30.4534 35.2946C30.3518 35.6836 30.2463 36.06 30.1361 36.429C30.1103 36.5156 30.0844 36.6017 30.0581 36.6872C29.9467 37.0521 29.832 37.4096 29.712 37.7522C29.7006 37.7843 29.6891 37.8141 29.6776 37.8457C29.5652 38.1665 29.4481 38.4752 29.3287 38.7758C29.3006 38.847 29.2725 38.9187 29.2438 38.9881C29.1159 39.3003 28.9856 39.6027 28.8502 39.893C28.8244 39.9493 28.7974 40.0026 28.771 40.0583C28.6482 40.3171 28.5214 40.5678 28.3935 40.8082C28.3694 40.8536 28.3458 40.9006 28.3211 40.9454C28.1771 41.2082 28.0297 41.4584 27.8793 41.6976C27.8443 41.7527 27.8099 41.8055 27.7749 41.8589C27.624 42.0918 27.4713 42.3173 27.3141 42.5268C27.3084 42.5337 27.3038 42.5411 27.2986 42.548C27.1385 42.7615 26.9733 42.9583 26.8069 43.1471C26.769 43.1895 26.7306 43.232 26.6927 43.2739C26.5383 43.442 26.3823 43.6027 26.2233 43.749C30.5257 43.0937 34.4763 41.1261 37.6397 38.0379ZM19.3079 43.2756C19.2688 43.2331 19.2293 43.1895 19.1914 43.1448C19.025 42.9571 18.8609 42.7615 18.7008 42.5486C18.6945 42.54 18.6887 42.5308 18.6818 42.5222C18.5269 42.315 18.3754 42.0918 18.2257 41.8612C18.1895 41.8061 18.154 41.7521 18.1189 41.6953C17.9692 41.4572 17.8223 41.2088 17.6794 40.9471C17.6536 40.9006 17.6289 40.8518 17.6042 40.8042C17.4763 40.5655 17.3512 40.3171 17.229 40.06C17.202 40.0038 17.175 39.9493 17.1481 39.8919C17.0138 39.6021 16.8836 39.3009 16.7556 38.9899C16.7263 38.9187 16.6982 38.8458 16.6695 38.7735C16.5507 38.4746 16.4348 38.1676 16.3224 37.8497C16.3109 37.8159 16.2988 37.7849 16.2868 37.751C16.1674 37.4085 16.0533 37.0516 15.9414 36.6878C15.915 36.6017 15.8892 36.5151 15.8628 36.4278C15.7537 36.0595 15.647 35.6836 15.546 35.2951C15.534 35.2475 15.5225 35.1982 15.5099 35.1505C15.4181 34.7913 15.3303 34.4218 15.2465 34.046C15.2264 33.9565 15.2052 33.867 15.1857 33.7757C15.173 33.7166 15.1593 33.6604 15.1467 33.6007C15.1237 33.6099 15.1002 33.6173 15.0767 33.6271C14.9923 33.6615 14.9091 33.7 14.8253 33.7356C14.5482 33.8532 14.2733 33.9754 14.0019 34.1051C13.8831 34.1619 13.7655 34.2204 13.6479 34.2795C13.4063 34.4 13.167 34.5257 12.9306 34.6554C12.8164 34.7173 12.7028 34.7793 12.5898 34.8436C12.3184 34.9991 12.051 35.162 11.7859 35.3301C11.7193 35.372 11.6522 35.4111 11.5856 35.4541C11.2586 35.6658 10.9378 35.8885 10.6228 36.118C10.5396 36.1788 10.4593 36.2442 10.3761 36.3062C10.1448 36.4806 9.91645 36.6585 9.69267 36.8427C9.58766 36.9282 9.48552 37.016 9.38224 37.1032C9.17854 37.2776 8.97771 37.4555 8.78032 37.6374C8.68392 37.7263 8.58637 37.8147 8.4917 37.9054C8.44694 37.9478 8.40505 37.9937 8.3603 38.0373C11.5231 41.1261 15.4737 43.0937 19.7761 43.7484C19.6171 43.6032 19.4616 43.4426 19.3079 43.2756ZM6.98604 36.5632C7.0285 36.5214 7.07441 36.4829 7.11744 36.4416C7.22359 36.3406 7.33204 36.2436 7.43992 36.1444C7.65567 35.9464 7.87314 35.7519 8.09635 35.5625C8.21627 35.4598 8.33849 35.3588 8.46071 35.259C8.68507 35.076 8.91229 34.8986 9.14239 34.7242C9.26174 34.6336 9.38052 34.5423 9.50216 34.454C9.77415 34.2566 10.0507 34.0666 10.3307 33.8819C10.4128 33.8274 10.492 33.7706 10.5752 33.7172C10.9395 33.4825 11.3102 33.2587 11.6872 33.0453C11.779 32.9931 11.8731 32.946 11.9649 32.8955C12.253 32.7377 12.5433 32.5839 12.8377 32.4382C12.9731 32.371 13.1114 32.3074 13.2491 32.2431C13.5079 32.1214 13.7684 32.0038 14.0318 31.8919C14.1792 31.83 14.3261 31.7686 14.4742 31.7095C14.5723 31.6704 14.6681 31.6257 14.7668 31.5884C14.7186 31.298 14.6802 31.0008 14.636 30.7065C14.6067 30.5102 14.5757 30.3157 14.5488 30.1183C14.4592 29.4556 14.3789 28.7854 14.3135 28.1037C14.3112 28.075 14.3095 28.0452 14.3066 28.017C14.2452 27.3641 14.197 26.7019 14.158 26.0334C14.1454 25.8165 14.1373 25.5967 14.127 25.3781C14.1127 25.0826 14.0937 24.7906 14.0845 24.4922H2.0611C2.37497 28.942 4.09063 33.1514 6.98604 36.5632ZM14.053 22.4844C14.0541 21.754 14.0696 21.0287 14.0966 20.3097C14.1041 20.1146 14.119 19.9236 14.1282 19.729C14.154 19.1937 14.1821 18.66 14.2223 18.1327C14.2423 17.8653 14.2705 17.6031 14.294 17.338C14.3342 16.8893 14.3772 16.4417 14.4277 16.0005C14.461 15.7136 14.5 15.4318 14.5373 15.1484C14.5723 14.8867 14.6004 14.6205 14.6388 14.3623C14.539 14.3232 14.4426 14.2785 14.3439 14.2378C14.1993 14.1787 14.0553 14.1184 13.9118 14.057C13.6519 13.9445 13.3948 13.8269 13.1389 13.7053C13.0047 13.6416 12.8698 13.5785 12.7367 13.5125C12.444 13.3661 12.156 13.2118 11.8702 13.0529C11.7819 13.0041 11.6918 12.9587 11.6046 12.9088C11.2345 12.6971 10.8707 12.475 10.5132 12.2432C10.426 12.1864 10.3405 12.1256 10.2544 12.0671C9.98473 11.8875 9.71849 11.7038 9.45626 11.5128C9.33519 11.425 9.21641 11.3332 9.09706 11.2419C8.87155 11.0709 8.64949 10.8959 8.4303 10.7169C8.30865 10.6176 8.18873 10.5172 8.06995 10.4162C7.85019 10.2286 7.63501 10.0358 7.42213 9.84013C7.31655 9.74316 7.2104 9.64849 7.10711 9.54922C7.06695 9.51135 7.02391 9.47519 6.98489 9.43675C3.87833 13.0976 2.12995 17.676 2.01347 22.4844H14.053ZM8.36087 7.96265C8.40333 8.00454 8.44465 8.04873 8.48768 8.09061C8.57662 8.17554 8.66785 8.25816 8.75852 8.34194C8.95705 8.52498 9.15788 8.70516 9.3633 8.88017C9.462 8.96394 9.56069 9.04886 9.66168 9.13149C9.88489 9.31511 10.1127 9.49413 10.3434 9.66857C10.422 9.72824 10.4989 9.78964 10.5775 9.84817C10.8862 10.0754 11.2006 10.2934 11.5208 10.5034C11.5931 10.5505 11.6671 10.5941 11.7394 10.64C11.9919 10.8013 12.2478 10.9579 12.5066 11.1077C12.6196 11.1725 12.7332 11.2356 12.8469 11.2987C13.0787 11.4278 13.3134 11.5512 13.5503 11.6711C13.6645 11.7291 13.7781 11.787 13.8935 11.8433C14.1746 11.9787 14.4592 12.1078 14.7461 12.2312C14.8127 12.2599 14.8781 12.2914 14.9458 12.319C14.959 12.3253 14.9739 12.3299 14.9871 12.335C14.9975 12.2822 15.0095 12.234 15.0204 12.1812C15.0858 11.8507 15.157 11.5317 15.2281 11.2127C15.2694 11.0268 15.3085 10.8351 15.3515 10.6526C15.4456 10.2579 15.546 9.87801 15.6487 9.50274C15.6751 9.40634 15.6987 9.30421 15.725 9.20895C15.8564 8.74417 15.9953 8.29546 16.1393 7.8611C16.1812 7.73314 16.2283 7.61493 16.2713 7.48984C16.3763 7.18974 16.4802 6.89137 16.5915 6.60733C16.6517 6.45183 16.716 6.30666 16.7785 6.15575C16.8772 5.91648 16.9759 5.67777 17.0786 5.45112C17.1492 5.2962 17.2221 5.15102 17.2944 5.00241C17.3948 4.79584 17.4958 4.59042 17.5997 4.39533C17.6771 4.25016 17.7563 4.11244 17.8361 3.97416C17.9405 3.79284 18.0449 3.61496 18.1522 3.44454C18.236 3.31314 18.3204 3.18633 18.4053 3.06123C18.5137 2.90229 18.6239 2.74909 18.7346 2.60162C18.7817 2.54023 18.8253 2.46907 18.8729 2.40882C14.9206 3.18862 11.3005 5.09135 8.36087 7.96265ZM27.2636 2.5976C27.3767 2.74737 27.488 2.90229 27.5982 3.06411C27.6819 3.18747 27.7657 3.31256 27.8478 3.44224C27.9562 3.61324 28.0618 3.79226 28.1668 3.9753C28.246 4.11301 28.3246 4.25016 28.4021 4.39476C28.5065 4.58985 28.6063 4.79469 28.7073 5.00183C28.7802 5.15045 28.8531 5.2962 28.9236 5.45055C29.0258 5.67605 29.1245 5.91361 29.2226 6.15116C29.2857 6.30379 29.3506 6.45012 29.4114 6.60849C29.5198 6.88792 29.6231 7.18229 29.7264 7.47779C29.7717 7.60748 29.8193 7.72969 29.8635 7.86282C30.0076 8.29604 30.1453 8.7436 30.2767 9.20781C30.3048 9.30822 30.33 9.4161 30.3576 9.51766C30.4586 9.88834 30.5573 10.2619 30.6502 10.6503C30.6938 10.8363 30.734 11.0313 30.7759 11.2207C30.8465 11.5374 30.917 11.8536 30.9819 12.1807C30.9922 12.2335 31.0042 12.2822 31.0146 12.335C31.0283 12.3293 31.0427 12.3247 31.0565 12.3195C31.1242 12.2908 31.1902 12.2593 31.2579 12.2306C31.5436 12.1078 31.8277 11.9793 32.1082 11.8433C32.2236 11.787 32.3378 11.7291 32.4537 11.6706C32.6889 11.5512 32.923 11.4273 33.1543 11.2993C33.2685 11.2362 33.3827 11.1725 33.4963 11.1071C33.7539 10.9579 34.0087 10.8024 34.2606 10.6412C34.3334 10.5947 34.4092 10.5505 34.4826 10.5029C34.8022 10.2934 35.1161 10.0754 35.4242 9.84874C35.5051 9.78907 35.5832 9.72537 35.6641 9.66455C35.8919 9.49184 36.1174 9.31568 36.3389 9.13379C36.441 9.04943 36.542 8.96279 36.643 8.87672C36.8444 8.70458 37.0424 8.52842 37.2369 8.34825C37.331 8.26161 37.4257 8.17554 37.5186 8.08717C37.5599 8.047 37.5995 8.00397 37.6414 7.96323C34.7013 5.09193 31.08 3.18977 27.1299 2.4094C27.1741 2.46735 27.2177 2.53678 27.2636 2.5976Z" fill="white"/>
</svg>
