<svg width="39" height="39" viewBox="0 0 39 39" fill="none" xmlns="http://www.w3.org/2000/svg">
<g clip-path="url(#clip0_197_8721)">
<path fill-rule="evenodd" clip-rule="evenodd" d="M0 19.5C0 30.2695 8.73048 39 19.5 39C30.2695 39 39 30.2695 39 19.5C39 8.73048 30.2695 0 19.5 0C8.73048 0 0 8.73048 0 19.5ZM15.925 28.4375L16.2567 23.4669L25.2987 15.3067C25.6956 14.9545 25.2121 14.7827 24.6853 15.1022L13.5259 22.1425L8.70569 20.6381C7.66472 20.3193 7.65724 19.604 8.93937 19.0898L27.7227 11.847C28.5807 11.4575 29.4087 12.053 29.0812 13.366L25.8823 28.44C25.659 29.5112 25.0118 29.7674 24.115 29.2726L19.2422 25.6725L16.9 27.95C16.8926 27.9572 16.8853 27.9643 16.878 27.9714C16.616 28.2265 16.3993 28.4375 15.925 28.4375Z" fill="white"/>
</g>
<defs>
<clipPath id="clip0_197_8721">
<rect width="39" height="39" fill="white"/>
</clipPath>
</defs>
</svg>
